<svg xmlns="http://www.w3.org/2000/svg" width="702" height="242" fill="none" viewBox="0 0 702 242">
  <path fill="#051F3E" d="M7.585 116V28.727h34.943c6.42 0 11.776.952 16.066 2.855 4.29 1.904 7.514 4.546 9.673 7.926 2.16 3.353 3.239 7.216 3.239 11.591 0 3.41-.682 6.407-2.046 8.992a17.653 17.653 0 0 1-5.625 6.307c-2.358 1.619-5.057 2.77-8.096 3.451v.853c3.324.142 6.434 1.08 9.332 2.812 2.926 1.733 5.298 4.162 7.117 7.287 1.818 3.097 2.727 6.79 2.727 11.08 0 4.63-1.15 8.764-3.452 12.4-2.273 3.608-5.64 6.463-10.1 8.566-4.46 2.102-9.957 3.153-16.49 3.153H7.584Zm18.452-15.085H41.08c5.142 0 8.892-.98 11.25-2.94 2.358-1.99 3.537-4.631 3.537-7.927 0-2.415-.583-4.545-1.748-6.392-1.164-1.846-2.826-3.295-4.986-4.346-2.13-1.052-4.673-1.577-7.627-1.577h-15.47v23.182Zm0-35.668h13.679c2.528 0 4.773-.44 6.733-1.32 1.989-.91 3.551-2.188 4.687-3.836 1.165-1.648 1.747-3.622 1.747-5.923 0-3.154-1.122-5.696-3.366-7.628-2.216-1.932-5.37-2.898-9.46-2.898h-14.02v21.605Zm90.117 52.031c-6.619 0-12.344-1.406-17.173-4.218-4.801-2.841-8.509-6.79-11.122-11.847-2.614-5.085-3.92-10.98-3.92-17.685 0-6.761 1.306-12.67 3.92-17.727 2.613-5.085 6.32-9.034 11.122-11.846 4.829-2.841 10.554-4.262 17.173-4.262 6.619 0 12.33 1.42 17.131 4.262 4.829 2.812 8.551 6.76 11.165 11.846 2.613 5.057 3.92 10.966 3.92 17.727 0 6.705-1.307 12.6-3.92 17.685-2.614 5.057-6.336 9.006-11.165 11.847-4.801 2.812-10.512 4.218-17.131 4.218Zm.085-14.062c3.012 0 5.526-.852 7.543-2.557 2.017-1.733 3.537-4.09 4.56-7.074 1.051-2.983 1.576-6.378 1.576-10.184 0-3.807-.525-7.202-1.576-10.185-1.023-2.983-2.543-5.341-4.56-7.074-2.017-1.733-4.531-2.6-7.543-2.6-3.039 0-5.596.867-7.67 2.6-2.046 1.733-3.594 4.091-4.645 7.074-1.023 2.983-1.534 6.378-1.534 10.185 0 3.806.511 7.201 1.534 10.184 1.051 2.983 2.599 5.341 4.645 7.074 2.074 1.705 4.631 2.557 7.67 2.557Zm73.509 14.062c-6.619 0-12.344-1.406-17.173-4.218-4.802-2.841-8.509-6.79-11.123-11.847-2.613-5.085-3.92-10.98-3.92-17.685 0-6.761 1.307-12.67 3.92-17.727 2.614-5.085 6.321-9.034 11.123-11.846 4.829-2.841 10.554-4.262 17.173-4.262 6.619 0 12.329 1.42 17.131 4.262 4.829 2.812 8.551 6.76 11.164 11.846 2.614 5.057 3.921 10.966 3.921 17.727 0 6.705-1.307 12.6-3.921 17.685-2.613 5.057-6.335 9.006-11.164 11.847-4.802 2.812-10.512 4.218-17.131 4.218Zm.085-14.062c3.011 0 5.526-.852 7.543-2.557 2.017-1.733 3.537-4.09 4.559-7.074 1.052-2.983 1.577-6.378 1.577-10.184 0-3.807-.525-7.202-1.577-10.185-1.022-2.983-2.542-5.341-4.559-7.074-2.017-1.733-4.532-2.6-7.543-2.6-3.04 0-5.596.867-7.67 2.6-2.046 1.733-3.594 4.091-4.645 7.074-1.023 2.983-1.534 6.378-1.534 10.185 0 3.806.511 7.201 1.534 10.184 1.051 2.983 2.599 5.341 4.645 7.074 2.074 1.705 4.63 2.557 7.67 2.557Zm60.384-6.051.042-21.776h2.642l20.966-24.843h20.838l-28.167 32.897h-4.304l-12.017 13.722ZM233.768 116V28.727h18.153V116h-18.153Zm40.909 0-19.262-28.508 12.103-12.827L295.941 116h-21.264Zm33.965 78V48.546h98.011V73.9h-67.258v34.659h62.216v25.355h-62.216v34.73h67.543V194h-98.296Zm132.234-65.455 12.017 22.884 12.315-22.884h18.622l-18.963 32.728L484.342 194h-18.537l-12.912-22.628L440.194 194h-18.75l19.432-32.727-18.75-32.728h18.75Zm53.736 90v-90h17.897v10.995h.81c.795-1.762 1.946-3.551 3.452-5.37 1.534-1.846 3.522-3.38 5.966-4.602 2.471-1.25 5.539-1.875 9.204-1.875 4.773 0 9.176 1.25 13.21 3.75 4.034 2.472 7.259 6.208 9.674 11.208 2.414 4.971 3.622 11.207 3.622 18.707 0 7.301-1.179 13.466-3.537 18.494-2.33 5-5.512 8.793-9.546 11.378-4.005 2.557-8.494 3.835-13.466 3.835-3.522 0-6.519-.582-8.991-1.747-2.443-1.165-4.446-2.628-6.009-4.389-1.562-1.79-2.755-3.594-3.579-5.412h-.554v35.028h-18.153Zm17.769-57.272c0 3.892.54 7.287 1.62 10.184 1.079 2.898 2.642 5.157 4.687 6.776 2.046 1.591 4.531 2.386 7.458 2.386 2.954 0 5.454-.809 7.5-2.429 2.045-1.647 3.593-3.92 4.644-6.818 1.08-2.926 1.62-6.292 1.62-10.099 0-3.779-.526-7.103-1.577-9.972-1.051-2.869-2.599-5.114-4.645-6.733-2.045-1.619-4.559-2.429-7.542-2.429-2.955 0-5.455.781-7.5 2.344-2.017 1.562-3.566 3.778-4.645 6.648-1.08 2.869-1.62 6.25-1.62 10.142Zm87.742 34.005c-6.619 0-12.344-1.406-17.173-4.218-4.802-2.841-8.509-6.79-11.123-11.847-2.613-5.085-3.92-10.98-3.92-17.685 0-6.761 1.307-12.67 3.92-17.727 2.614-5.085 6.321-9.034 11.123-11.846 4.829-2.841 10.554-4.262 17.173-4.262 6.619 0 12.329 1.421 17.131 4.262 4.829 2.812 8.551 6.761 11.164 11.846 2.614 5.057 3.921 10.966 3.921 17.727 0 6.705-1.307 12.6-3.921 17.685-2.613 5.057-6.335 9.006-11.164 11.847-4.802 2.812-10.512 4.218-17.131 4.218Zm.085-14.062c3.011 0 5.526-.852 7.543-2.557 2.017-1.733 3.537-4.091 4.559-7.074 1.052-2.983 1.577-6.378 1.577-10.184 0-3.807-.525-7.202-1.577-10.185-1.022-2.983-2.542-5.341-4.559-7.074-2.017-1.733-4.532-2.599-7.543-2.599-3.04 0-5.596.866-7.67 2.599-2.046 1.733-3.594 4.091-4.645 7.074-1.023 2.983-1.534 6.378-1.534 10.185 0 3.806.511 7.201 1.534 10.184 1.051 2.983 2.599 5.341 4.645 7.074 2.074 1.705 4.63 2.557 7.67 2.557Zm84.915-132.67-2.77 101.846h-25.994l-2.841-101.846h31.605Zm-15.767 147.301c-4.688 0-8.712-1.658-12.074-4.972-3.362-3.362-5.019-7.386-4.972-12.074-.047-4.64 1.61-8.617 4.972-11.932 3.362-3.314 7.386-4.971 12.074-4.971 4.498 0 8.452 1.657 11.861 4.971 3.409 3.315 5.137 7.292 5.184 11.932-.047 3.125-.876 5.99-2.486 8.594a18.368 18.368 0 0 1-6.178 6.179c-2.557 1.515-5.351 2.273-8.381 2.273Z"/>
</svg>
